# xmcd CD database file
#
# Track frame offsets:
#	150
#	36513
#	83812
#	106938
#	129884
#	151527
#	173380
#	220572
#	254796
#
# Disc length: 3874 seconds
#
# Revision: 0
# Processed by: cddbd v1.5.2PL0 Copyright (c) Steve Scherf et al.
# Submitted via: CDex 1.70beta2
#
DISCID=660f2009
DTITLE=Ingrid Laubrock's Sleepthief - The Madness of Crowds
DYEAR=2010
DGENRE=Jazz
TTITLE0=Extraordinary Popular Delusions
TTITLE1=You Never Know What's In The Next Room
TTITLE2=The Slow Poisoners
TTITLE3=There She Goes With Her Eye Out
TTITLE4=South Sea Bubble
TTITLE5=Haunted Houses
TTITLE6=Does Your Mother Know You're Out?
TTITLE7=Tulipmania
TTITLE8=Hindsight Is Always 20/20
EXTD=YEAR: 2010
EXTT0=
EXTT1=
EXTT2=
EXTT3=
EXTT4=
EXTT5=
EXTT6=
EXTT7=
EXTT8=
PLAYORDER=
